<?xml version="1.0" encoding="UTF-8"?>
<!-- Generated by Pixelmator Pro 3.6.13 -->
<svg width="601" height="601" viewBox="0 0 601 601" xmlns="http://www.w3.org/2000/svg">
    <g id="Group">
        <linearGradient id="linearGradient1" x1="507.329206" y1="478.444028" x2="93.671347" y2="122.680956" gradientUnits="userSpaceOnUse">
            <stop offset="0" stop-color="#3478f6" stop-opacity="1"/>
            <stop offset="1" stop-color="#53b6f9" stop-opacity="1"/>
        </linearGradient>
        <path id="Path-copy-2" fill="url(#linearGradient1)" stroke="#ffffff" stroke-width="15" visibility="hidden" d="M 593 262 C 592.394104 205.032471 569.920532 151.067017 530 110.999969 C 489.952332 70.743286 436.905975 49 380 49 L 220.999985 49 C 103.492493 49.02179 8 144.523254 8 262 C 8 379.486938 103.492493 474.968018 220.999985 475 L 338 475 C 341.091156 475 343.184906 476.902557 344 478 C 345.983307 480.652161 345.313141 483.945984 345 485 C 343.76651 489.377197 340.077087 495.119568 334 505 C 329.319885 512.750732 324.919159 519.611023 324 521 C 317.44046 530.839294 315.555847 539.69342 318 545 C 319.838196 549 324.77179 551.143799 332 552 C 334.444153 552.281189 337.781982 552 341 552 C 342.691864 552 344.558411 552.114258 346 552 C 360.999451 550.715088 381.311218 548.111694 405 541 C 439.530579 530.617737 488.246277 508.916565 528 463 C 570.531616 414.023193 593.125671 346.53949 593 267 Z"/>
        <linearGradient id="linearGradient2" x1="507.328733" y1="478.404761" x2="93.671267" y2="122.674209" gradientUnits="userSpaceOnUse">
            <stop offset="0" stop-color="#7234f6" stop-opacity="1"/>
            <stop offset="1" stop-color="#f253f9" stop-opacity="1"/>
        </linearGradient>
        <path id="Path-copy-5" fill="url(#linearGradient2)" stroke="#ffffff" stroke-width="15" d="M 592.977661 261.792419 C 592.37207 204.854401 570.094177 151.445831 530.194336 111.399597 C 490.16745 71.163757 436.842316 49 379.965881 49 L 221.011749 49 C 103.56514 49.02179 8 144.565125 8 261.980988 C 8 379.407043 103.56514 474.971069 221.011749 475.003021 L 338.480103 475.003021 C 341.569672 475.003021 343.198975 476.307861 344.013672 477.404724 C 345.995972 480.055511 345.119568 483.773438 344.80658 484.826904 C 343.57373 489.201843 340.462463 495.287201 334.38855 505.162506 C 329.710876 512.90918 325.36795 519.434387 324.449249 520.822632 C 317.893127 530.65686 315.638824 538.987366 318.081696 544.291199 C 319.918945 548.289063 324.532715 550.753601 331.757172 551.609375 C 334.200073 551.890442 337.582031 552.078979 340.798401 552.078979 C 342.48938 552.078979 344.117584 552.026428 345.558411 551.91217 C 360.55011 550.62793 380.803467 548.246826 404.479919 541.138794 C 438.992615 530.761902 488.457092 508.765045 528.190247 462.872284 C 570.699768 413.920868 593.125122 346.03125 592.999451 266.53299 Z M 554.079956 262.177521"/>
        <path id="Path-copy-3" fill="#ffffff" stroke="none" d="M 220 180.192719 L 220 344.807281 C 220 364.413269 227.833878 375.072723 241.407272 375.072723 C 247.942627 375.072723 255.72879 373.220764 265.029083 367.690918 L 405.28363 285.752716 C 416.846191 278.966034 423 271.16394 423 262.86908 C 423 254.574249 416.846191 246.033997 405.28363 239.247284 L 265.029083 158.047272 C 255.72879 152.517365 247.942627 149.927277 241.407272 149.927277 C 227.833878 149.927277 220 160.5867 220 180.192719 Z"/>
    </g>
</svg>
